<?xml version="1.0" encoding="UTF-8" standalone="no"?><!DOCTYPE svg PUBLIC "-//W3C//DTD SVG 1.1//EN" "http://www.w3.org/Graphics/SVG/1.1/DTD/svg11.dtd"><svg width="100%" height="100%" viewBox="0 0 562 239" version="1.1" xmlns="http://www.w3.org/2000/svg" xmlns:xlink="http://www.w3.org/1999/xlink" xml:space="preserve" xmlns:serif="http://www.serif.com/" style="fill-rule:evenodd;clip-rule:evenodd;stroke-linejoin:round;stroke-miterlimit:2;"><rect id="Artboard51" x="0" y="0" width="561.983" height="238.774" style="fill:none;"/><clipPath id="_clip1"><rect id="Artboard511" serif:id="Artboard51" x="0" y="0" width="561.983" height="238.774"/></clipPath><g clip-path="url(#_clip1)"><g><g><path d="M308.241,239.555l-42.381,-0l0,-16.953l42.381,0l0,16.953Zm178.002,-0l-59.334,-0l0,-16.953l-16.952,0l-0,-16.952l16.952,-0l0,-16.953l42.382,0l-0,-8.476l16.952,0l0,59.334Zm-135.62,-50.858l16.952,0l0,16.953l-16.952,-0l-0,33.905l-16.953,-0l0,-101.715l16.953,-0l-0,50.857Zm211.907,50.858l-67.81,-0l-0,-59.334l16.952,0l0,-16.953l33.905,0l0,-25.428l16.953,-0l-0,101.715Zm-161.049,-0l-16.953,-0l-0,-50.858l16.953,0l-0,50.858Zm-76.287,-16.953l-16.953,0l0,-16.952l16.953,-0l0,16.952Zm-59.334,0l-16.952,0l-0,-42.381l16.952,0l0,42.381Zm203.431,-16.952l-42.382,-0l0,16.952l42.382,0l-0,-16.952Zm76.286,-25.429l-33.905,0l0,42.381l33.905,0l0,-42.381Zm-220.383,16.953l-16.953,-0l0,-16.953l16.953,0l0,16.953Zm59.334,-8.477l-16.953,0l0,-16.952l16.953,-0l-0,16.952Zm-76.287,-8.476l-42.381,0l0,-16.953l42.381,0l0,16.953Zm161.05,0l-59.334,0l-0,-16.953l59.334,0l-0,16.953Zm42.381,-58.919l-16.952,0l-0,-76.286l16.952,-0l0,76.286Zm50.858,0l-16.953,0l0,-16.952l16.953,-0l-0,16.952Zm-262.765,0l-33.905,0l0,-16.952l33.905,-0l0,16.952Zm42.382,-16.952l50.857,-0l0,16.952l-67.81,0l0,-33.905l16.953,0l-0,16.953Zm76.286,-33.905l16.953,-0l-0,16.952l-16.953,0l0,16.953l50.858,-0l-0,16.952l-67.81,0l-0.298,-101.715l17.25,0l0,50.858Zm127.144,-25.429l8.476,-0l0,16.952l-8.476,0l0,42.382l-16.952,-0l-0,-42.382l-8.477,0l0,-16.952l8.477,-0l-0,-16.953l16.952,0l0,16.953Zm-228.859,59.334l-16.953,-0l0,-25.429l16.953,-0l-0,25.429Zm-50.858,-0l-16.952,-0l-0,-16.953l16.952,0l0,16.953Zm220.383,-0l-16.952,-0l-0,-33.905l16.952,-0l0,33.905Zm-127.144,-16.953l-16.952,0l-0,-16.952l16.952,-0l0,16.952Zm-59.334,-8.476l-16.952,-0l-0,-16.953l16.952,0l0,16.953Zm76.287,-8.476l-16.953,-0l0,-16.953l16.953,0l-0,16.953Zm93.239,-0l-33.905,-0l-0,-16.953l33.905,0l-0,16.953Zm-152.573,-8.477l-16.953,0l0,-25.428l16.953,-0l-0,25.428Zm-50.858,-8.476l-16.952,0l-0,-16.952l16.952,-0l0,16.952Zm127.144,0l-16.952,0l-0,-16.952l16.952,-0l0,16.952Zm-50.857,0l-16.953,0l0,-16.952l16.953,-0l-0,16.952Zm169.525,-16.952l-16.952,-0l-0,-16.953l16.952,0l0,16.953Zm-211.907,-0l-33.905,-0l0,-16.953l33.905,0l0,16.953Zm76.287,-0l-33.905,-0l-0,-16.953l33.905,0l-0,16.953Z" style="fill-rule:nonzero;"/></g><path d="M136.989,239.555l-85.276,-0l-0,-17.055l85.276,-0l0,17.055Zm-119.355,-170.553l-0.048,0l0,-51.166l34.111,0l-0,-17.055l85.276,0l0,17.055l34.111,0l-0,68.222l0.016,-0l-0,34.11l17.202,0l-0.147,51.166l-17.055,-0l-0,51.166l-34.111,-0l0,-17.056l17.056,0l-0,-51.165l17.055,-0l-0,-17.056l-17.055,0l-0,-34.11l-17.056,-0l0,-17.055l-68.221,-0l0,17.055l-17.055,-0l-0,17.055l34.11,0l0,34.111l17.056,-0l-0,17.055l-34.111,-0l0,-34.111l-34.11,0l-0,17.056l17.055,-0l-0,68.221l-34.111,-0l0,-51.166l-17.055,-0l0,-51.166l17.055,0l0,-34.11l0.032,-0l0,-17.056Zm102.3,119.833l-0,17.055l-51.166,0l0,-17.055l51.166,-0Zm-0,-17.055l17.055,-0l0,17.055l-17.055,-0l-0,-17.055Zm17.055,-34.557l-34.11,0l-0,-17.055l34.11,0l0,17.055Zm17.039,-68.221l0,-34.11l-17.055,-0l0,17.055l-17.055,-0l-0,-34.111l-51.166,0l0,34.111l-17.055,-0l-0,17.055l102.331,0Zm-68.221,-34.11l17.056,-0l-0,17.055l-17.056,-0l0,-17.055Z"/></g></g></svg>
